<svg id="Ebene_1" data-name="Ebene 1" xmlns="http://www.w3.org/2000/svg" viewBox="0 0 1219.73 1022.33"><defs><style>.cls-1{fill:#fff;}.cls-2{fill:#fd8c02;}.cls-3{fill:#4a4a75;}.cls-4{fill:#ff0;}</style></defs><path class="cls-1" d="M514.56,1004.76c13.56-3.37,27.08-6.89,40.61-10.41s27.26-7.19,40.9-10.75q14.76-3.84,29.53-7.58c6.48-1.64,13-3.25,19.45-4.88,9.62-2.41,19.25-4.8,28.87-7.26,10.53-2.69,21.06-5.39,31.57-8.2,12.48-3.33,24.86-7.07,37.41-10.11,11.12-2.7,22.48-4.42,33.61-7.07,10.6-2.51,21-5.66,31.55-8.52,5.71-1.55,11.44-3,17.16-4.58,12.9-3.48,25.77-7.12,38.72-10.4,10.36-2.63,20.88-4.6,31.24-7.24,17.85-4.55,35.6-9.5,53.44-14.06,14-3.59,28.17-6.7,42.18-10.32,13.4-3.45,26.66-7.44,40-10.91,14-3.61,28-6.82,42-10.32q22.67-5.68,45.28-11.59c5.53-1.43,11-3.18,16.52-4.58,14.18-3.57,28.38-7,42.57-10.52,5.08-1.25,10.18-2.44,15.24-3.74q15.52-4,31-8.13c10.52-2.8,21-5.77,31.53-8.54,12.77-3.37,25.55-6.7,38.38-9.87,9.66-2.38,19.46-4.24,29.09-6.73,14.16-3.67,28.32-7.38,42.3-11.64,13.66-4.15,27.93-7.41,40.48-13.87,35.11-18.08,59-47.35,75-82.77,9-19.88,13.11-41.38,13-63.48-.14-29.22-.06-58.45,0-87.68q.09-102.54.21-205.09c0-66.08-.23-132.15.19-198.22.11-18.81-.61-37.49-6.86-55.14-5.22-14.74-13-28.48-25.6-38.79C1447,30.23,1431.38,22.17,1413,20.89a122,122,0,0,0-46.87,5.66c-14.36,4.68-29.6,6.58-44.32,10.25-19,4.73-37.82,10.12-56.79,15-6,1.53-12.36,1.74-18.32,3.39-13,3.6-25.81,7.93-38.81,11.59-10.3,2.89-20.78,5.12-31.14,7.83-13,3.39-25.9,7.05-38.88,10.43-14.85,3.87-29.73,7.59-44.61,11.32-9.68,2.42-19.39,4.76-29.08,7.12s-19.31,4.51-28.89,7C1021.81,114,1008.46,118,995,121.54c-14.68,3.83-29.46,7.29-44.17,11-9.33,2.37-18.58,5.05-27.92,7.41-10.54,2.66-21.18,5-31.71,7.7-13,3.36-25.86,7.17-38.87,10.44-14.74,3.7-29.59,7-44.37,10.5-11.11,2.66-22.19,5.46-33.3,8.15-9.41,2.29-18.88,4.37-28.24,6.83-13.62,3.58-27.14,7.51-40.75,11.11-13.45,3.55-26.95,6.88-40.43,10.3l-8.65,2.18c-6.25,1.59-12.53,3.1-18.75,4.79-8.66,2.36-17.22,5.06-25.92,7.24-10.35,2.6-20.85,4.63-31.2,7.21-14.52,3.62-29,7.53-43.45,11.29-10.32,2.68-20.66,5.28-31,8-12.74,3.34-25.43,6.87-38.2,10.08-10.1,2.54-20.38,4.39-30.42,7.13-12.53,3.42-24.69,9.19-37.39,10.67-11.45,1.34-21.11,6.11-30.27,11.24a160.39,160.39,0,0,0-61.17,60,164.71,164.71,0,0,0-16.24,37c-3.94,13.52-8,26.8-8.05,40.85q-.3,150.21-.25,300.4c0,56.93-.24,113.86.37,170.78.31,28.79-3,57.69,8.22,86" transform="translate(-278.27 -14.99)"/><path class="cls-2" d="M378.61,1037.32H371c-4.22-1.35-12.67-2.09-17-3.12-30.17-7.23-49.58-25.36-61.13-54.46-11.23-28.28-7.91-57.18-8.22-86-.61-56.92-.37-113.85-.37-170.78q0-150.19.25-300.4c0-14,4.11-27.33,8.05-40.85a164.71,164.71,0,0,1,16.24-37,160.39,160.39,0,0,1,61.17-60c9.16-5.13,18.82-9.9,30.27-11.24,12.7-1.48,24.86-7.25,37.39-10.67,10-2.74,20.32-4.59,30.42-7.13,12.77-3.21,25.46-6.74,38.2-10.08,10.31-2.7,20.65-5.3,31-8,14.48-3.76,28.93-7.67,43.45-11.29,10.35-2.58,20.85-4.61,31.2-7.21,8.7-2.18,17.26-4.88,25.92-7.24,6.22-1.69,12.5-3.2,18.75-4.79l8.65-2.18c13.48-3.42,27-6.75,40.43-10.3,13.61-3.6,27.13-7.53,40.75-11.11,9.36-2.46,18.83-4.54,28.24-6.83,11.11-2.69,22.19-5.49,33.3-8.15,14.78-3.53,29.63-6.8,44.37-10.5,13-3.27,25.88-7.08,38.87-10.44,10.53-2.73,21.17-5,31.71-7.7,9.34-2.36,18.59-5,27.92-7.41,14.71-3.74,29.49-7.2,44.17-11,13.47-3.52,26.82-7.5,40.28-11.05,9.58-2.54,19.26-4.7,28.89-7s19.4-4.7,29.08-7.12c14.88-3.73,29.76-7.45,44.61-11.32,13-3.38,25.9-7,38.88-10.43,10.36-2.71,20.84-4.94,31.14-7.83,13-3.66,25.8-8,38.81-11.59,6-1.65,12.32-1.86,18.32-3.39,19-4.84,37.8-10.23,56.79-15,14.72-3.67,30-5.57,44.32-10.25A122,122,0,0,1,1413,20.89c18.4,1.28,34,9.34,48.18,20.88,12.64,10.31,20.38,24,25.6,38.79,6.25,17.65,7,36.33,6.86,55.14-.42,66.07-.15,132.14-.19,198.22q-.06,102.54-.21,205.09c0,29.23-.1,58.46,0,87.68.11,22.1-4,43.6-13,63.48-16,35.42-39.9,64.69-75,82.77-12.55,6.46-26.82,9.72-40.48,13.87-14,4.26-28.14,8-42.3,11.64-9.63,2.49-19.43,4.35-29.09,6.73-12.83,3.17-25.61,6.5-38.38,9.87-10.53,2.77-21,5.74-31.53,8.54q-15.48,4.14-31,8.13c-5.06,1.3-10.16,2.49-15.24,3.74-14.19,3.5-28.39,6.95-42.57,10.52-5.54,1.4-11,3.15-16.52,4.58q-22.62,5.87-45.28,11.59c-14,3.5-28,6.71-42,10.32-13.39,3.47-26.65,7.46-40,10.91-14,3.62-28.16,6.73-42.18,10.32-17.84,4.56-35.59,9.51-53.44,14.06-10.36,2.64-20.88,4.61-31.24,7.24-13,3.28-25.82,6.92-38.72,10.4-5.72,1.54-11.45,3-17.16,4.58-10.51,2.86-20.95,6-31.55,8.52-11.13,2.65-22.49,4.37-33.61,7.07-12.55,3-24.93,6.78-37.41,10.11-10.51,2.81-21,5.51-31.57,8.2-9.62,2.46-19.25,4.85-28.87,7.26-6.48,1.63-13,3.24-19.45,4.88q-14.76,3.76-29.53,7.58c-13.64,3.56-27.26,7.21-40.9,10.75s-27,7-40.61,10.41c-11.13,2.76-22.34,5.16-33.45,8-12.58,3.16-25.11,6.55-37.65,9.88-10.3,2.72-20.54,5.68-30.89,8.21a291.64,291.64,0,0,1-34,6.52m1017-638.73q0-28.21,0-56.43,0-99.14-.17-198.27a20,20,0,0,0-2-9.28c-3.68-6.67-15.89-8.89-25.66-6.07-14.61,4.22-29.41,7.78-44.1,11.71-10.23,2.73-20.39,5.68-30.62,8.4-12.54,3.33-25.1,6.62-37.7,9.73-10.9,2.69-21.91,5-32.81,7.68-13.8,3.45-27.53,7.21-41.3,10.77-10.62,2.74-21.28,5.29-31.88,8.08-12.28,3.22-24.36,7.73-36.84,9.57-11.2,1.65-20.93,9.34-32.83,7.38-.53-.09-1.16,1-1.84,1.18-8.53,2.46-17,5.05-25.62,7.21-6.3,1.57-12.81,2.28-19.11,3.86-14.71,3.7-29.34,7.71-44,11.54-8.92,2.32-17.9,4.45-26.82,6.8-14,3.68-27.85,7.62-41.84,11.17-10.12,2.57-20.42,4.43-30.53,7-18.18,4.72-36.28,9.78-54.41,14.7q-19.85,5.37-39.68,10.79c-8.68,2.37-17.28,5-26,7.19-14.28,3.56-28.63,6.8-42.93,10.25-15.54,3.75-31.08,7.5-46.58,11.39-8.89,2.24-17.72,4.75-26.57,7.17-13.17,3.61-26.29,7.41-39.51,10.83-10.85,2.81-21.84,5.09-32.73,7.76-14.17,3.48-28.29,7.15-42.45,10.69-9.42,2.35-18.88,4.54-28.29,6.95-10.63,2.71-21.22,5.6-31.84,8.38-9.36,2.45-18.75,4.77-28.08,7.31-13.15,3.57-26.09,9.27-39.44,10.45-18,1.6-29.3,19.32-28.95,33,.92,35.22,1.88,70.44,2.24,105.66.14,13.6-1.76,27.21-1.94,40.83-.41,30.49-.4,61-.42,91.49q-.09,133.08-.07,266.14c0,13.11,5.84,19.06,18.9,18.27,5.87-.36,11.71-2.11,17.47-3.63,14-3.68,27.81-7.77,41.8-11.36,9.9-2.55,20-4.3,29.9-6.84,14.24-3.65,28.37-7.77,42.58-11.55,12.24-3.26,24.57-6.2,36.8-9.48,10.53-2.83,20.91-6.24,31.49-8.83,19.37-4.76,38.87-9,58.26-13.66,14.31-3.44,28.52-7.28,42.78-10.9,9.43-2.39,18.92-4.57,28.32-7.07,13.19-3.51,26.29-7.41,39.51-10.8,14-3.59,28.2-6.59,42.22-10.19s27.87-7.77,41.87-11.44c12.76-3.34,25.63-6.26,38.41-9.53,15.1-3.88,30.14-8,45.24-11.88,5.82-1.5,11.76-2.53,17.59-4,10.62-2.65,21.18-5.5,31.79-8.17,9.69-2.45,19.44-4.65,29.1-7.19,13.23-3.48,26.39-7.26,39.61-10.77,11-2.92,22.17-5.57,33.23-8.48,8.65-2.27,17.19-5,25.88-7.09,13.86-3.36,27.85-6.18,41.69-9.58,10.87-2.66,21.59-5.92,32.4-8.8s21.76-5.65,32.64-8.46c8.68-2.24,17.34-4.6,26.07-6.69,10.39-2.48,20.9-4.53,31.26-7.15,14.2-3.58,28.3-7.53,42.45-11.3,10.58-2.83,21.2-5.48,31.72-8.48,7.1-2,14-5,21.14-6.63,12.64-2.85,21.28-12.86,21.28-26Q1395.59,526.32,1395.56,398.59ZM352,719.58c-.05-9.91-7.62-18-17.25-17.53-7.72.4-16.94,8.45-16.61,18.24.28,8.44,8.57,17.43,16.36,17.47C344.34,737.81,352,729.82,352,719.58Zm-.06,103.52c0-11.14-6.41-18-16.74-18a17.54,17.54,0,0,0-17.25,17.37c0,8,9.32,18.25,16.58,18.29C344.88,840.81,351.94,833.64,351.92,823.1Zm0,101.6c0-10.89-5.54-16.1-17.06-16.13a17,17,0,0,0-16.76,17c.11,9.32,7.6,17.29,16.58,16.44C345.74,941,352.72,936.05,351.92,924.7Zm729.61-135.11c-10.77,0-15.91,5.31-15.91,16.32,0,10.14,7.32,17.21,17.69,17.14,10.52-.06,15.17-8.83,15.63-17.48C1099.48,795.68,1092.16,789.55,1081.53,789.59ZM711.75,904.83c1.37-9.25-8.9-17.06-17.5-17.23-8-.16-16.77,7.3-16.44,16.55.37,10.06,6.88,17.25,16.71,17.27C704.17,921.45,711.66,914.24,711.75,904.83ZM500.89,970.4c9.09.1,18.53-8.46,18.33-16.61-.21-8.36-8.62-16.7-17.27-17.12-10.41-.51-16.52,5.84-16.68,17.35Q485,970.21,500.89,970.4ZM1373.2,60.59c-11.72.08-17.88,6-17.76,16.91.1,7.84,8.92,16.28,17.16,16.4,7.71.12,16.81-9.26,16.73-17.26A16,16,0,0,0,1373.2,60.59Zm-.1,655.66c-9-.18-19,7.46-19.19,14.56-.17,7.28,11.5,18.26,19.83,18.65,7.5.35,15.75-8.81,15.83-17.59S1382.58,716.44,1373.1,716.25Zm-985,262.85c-.22,10.18,4.75,15.29,15.15,15.58,10.09.28,18.45-6.43,18.2-15.43-.29-10.12-6.43-16.88-15.51-17.68C396,960.69,388.32,968.79,388.09,979.1Zm806.07-197.82c.06-10.85-4-15.68-13.34-15.73-10.7-.06-19.32,6.6-19.65,15.17-.32,8.14,9.12,17.8,17.55,17.94C1187.45,798.82,1194.11,791.32,1194.16,781.28Zm247.08-635.17c10.5.12,15.46-5.21,16-16,.57-11.79-8.73-15.81-17.63-17-8.1-1.07-15.44,8.4-14.85,18.74C1425.22,140.71,1430.92,146.62,1441.24,146.11ZM1001.84,830.6c0-8.54-7.83-16.34-16.5-16.3-8.5,0-16.54,8.13-16.66,16.76-.11,7.55,8.45,16.41,16,16.59C993.34,847.87,1001.78,839.47,1001.84,830.6ZM791.4,896.66c9.21.1,17.65-8.47,17.48-17.72-.12-6.43-10.51-15.78-17.51-15.75-8.14,0-15.54,7.46-15.72,15.76C775.41,890.06,781.18,896.56,791.4,896.66Zm665.69-664c0-10.23-6.09-16.2-16.4-16.18-9.62,0-15.22,6-15.14,16.1.07,9.66,6.68,16.88,15.6,17S1457.13,242.11,1457.09,232.62ZM1442,319.34c-9-.07-17.55,7.55-18.07,16.15-.43,7.12,10.26,18.1,17.64,17.45,8.36-.74,15.94-9.43,15.75-18.1C1457.07,325.37,1451.34,319.41,1442,319.34ZM1275.49,772.08c10.54-.09,16.19-5.08,16.35-14.1.16-9.29-6.94-17.78-16.37-17.18-9.63.6-17.23,7.63-16.9,16.77C1258.85,765.47,1266.64,772.16,1275.49,772.08ZM597.91,945.42a15.94,15.94,0,0,0,16-16c.1-8.69-6.32-14.9-15.56-15.05-9.57-.16-16.91,5.76-17.35,14C580.53,936.8,589,945.33,597.91,945.42Zm306.35-89.65c0-8.58-7.67-16.82-15.68-16.72-6,.07-17,9.69-17.44,15.25-.49,6.82,10.39,17.75,17.62,17.68C896.18,871.92,904.21,863.52,904.26,855.77Zm552.4-416.6c.6-8-6.72-16.87-14.94-17.5-7.15-.55-15,6.7-15.44,12.88-1,13.88,5.17,18.51,16,19.51C1450,454.76,1456.54,447.48,1456.66,439.17ZM334.73,396.3c-8.76,0-13.85,5.53-13.86,15.1,0,9.23,5.24,15.31,13.26,15.37,9.26.07,17.13-7.22,17.06-15.79C351.12,403.34,343.25,396.31,334.73,396.3ZM1441.12,555.49c8.87.09,15.53-6,15.52-14.18,0-8.77-6-14.42-15.19-14.46s-14.93,5.94-15,15.55C1426.41,549.87,1432.61,555.4,1441.12,555.49ZM337.58,603.79c-10.28-.15-16.86,4.8-17,12.81-.19,9.33,4.92,15.11,13.51,15.29,10.06.21,17-5.14,17.17-13.31C351.47,609.62,346.2,603.91,337.58,603.79Zm1103.79,24.63c-7.44-.06-14.58,5.73-14.75,12-.29,10.1,5.5,17.56,13.73,17.72,8.82.17,16.4-6.43,16.33-14.23C1456.62,636.88,1448.29,628.48,1441.37,628.42ZM348.75,515.48c0-8.62-6.44-15.26-14.59-15.1-5,.1-12.78,8.88-13,14.59-.19,4.82,8.33,12.71,13.7,12.67C342.56,527.59,348.77,522.16,348.75,515.48Z" transform="translate(-278.27 -14.99)"/><path class="cls-3" d="M1035.71,617.78c1.37-21.25,7-40.61,16-59.79,10.21-21.87,24.51-40.28,42-56a142.31,142.31,0,0,1,56.2-31.49c13.74-4,27.44-8.83,41.57-8.07a94,94,0,0,1,44.28,13.47c18.35,11.11,31.69,26.22,38.66,45.87,5,14.16,8.6,29.54,6.3,44.78-3.56,23.57-9.21,46.31-22.79,67-13.15,20.05-27.59,38.47-47.18,52.16a150.4,150.4,0,0,1-40.81,20.69c-13.92,4.43-28.09,8.37-42.18,7.92-27.54-.89-52-10.92-70.1-32.9-9.29-11.28-15.9-23.92-17.75-38.75C1038.82,634.33,1037.12,626.07,1035.71,617.78Zm176.78-42.19c-1.48-7-2.7-14.08-4.5-21-2.38-9.14-17.21-23.2-28.2-22.54-9.89.59-20.4.27-29.38,3.66a66.28,66.28,0,0,0-24.3,16.86A81.85,81.85,0,0,0,1106,591.33c-3.56,16.18.19,29.51,9.42,41.43,13.48,17.44,39.67,16,54.68,7.73C1194.91,626.76,1211.76,606.4,1212.49,575.59Z" transform="translate(-278.27 -14.99)"/><path class="cls-3" d="M1254.86,178.43c32.55-1.42,56,14.58,74.78,38.41a68.39,68.39,0,0,1,14.22,36.67c.75,8.75,3.39,17.65,2.42,26.16-1.46,12.76-4.85,25.37-8.29,37.8-8.28,30-26.66,53.54-49.37,73.8-14.53,13-30.8,23.44-49.69,29.63-16.81,5.51-33.64,10.17-51.5,8.86a90.82,90.82,0,0,1-41.83-13.83c-13-8.12-24.31-18.16-31.16-32a98.45,98.45,0,0,1-8.52-25.16,160,160,0,0,1-3-33.16c.31-12.6,4.14-24.66,8-36.85,5-16,13.21-30,22.91-42.84,13.45-17.84,28.8-34.39,49.19-44.83,12.42-6.36,24.88-13.06,38.06-17.36C1231.76,180.23,1243.55,180.07,1254.86,178.43Zm22.4,113.11c-.14-3.05-.49-6.1-.39-9.14.57-18.4-15.6-32.59-29.49-35.13-20.77-3.81-39.09,3.24-53.74,18.76-11.5,12.18-19.32,25.66-21.85,43-1.92,13.16-.14,24.55,6.45,35.07,10.22,16.33,30.76,22.88,53.68,13.07C1261.17,344.7,1275.16,322.41,1277.26,291.54Z" transform="translate(-278.27 -14.99)"/><path class="cls-3" d="M574.43,582.68V569.31c0-42.19.14-84.38-.14-126.57,0-7.43-1.7-14.88-3-22.25-.65-3.77-8.39-7.3-12.21-5.4-10.92,5.45-22.44,11-24.51,24.72s-2.81,27.51-4.22,42.22l34.48-10.59c0,18.82.39,35.77-.35,52.67-.14,3.11-4.32,7.45-7.62,8.75-8,3.15-16.6,4.84-25.23,7.2,0,16.57-.12,32.56.07,48.55.07,5.81-2.13,8.13-8,9.25-10.25,2-20.22,5.36-30.36,7.92-7.87,2-15.77,4-23.77,5.26-4,.64-5.09-2.53-5-6.41.19-14.23.07-28.47.07-42.7,0-28.72-.33-57.45.14-86.16.22-14,.08-28.39,3.37-41.8,5.9-24.05,18.16-45.28,39.63-58.89A287.74,287.74,0,0,1,554,351.38a87.86,87.86,0,0,1,33.42-6.19c14,.23,28.5,2.58,38.31,15,6.51,8.26,11.67,17.6,12.55,27.88,1.85,21.61,2.83,43.34,3.15,65,.49,33.79.13,67.6.14,101.4,0,11.94-1.93,13.52-13.29,15.75s-22.68,5.93-34.07,8.69C588,580.47,581.7,581.34,574.43,582.68Z" transform="translate(-278.27 -14.99)"/><path class="cls-3" d="M861.42,280.51v44.37c0,36.09-.23,72.17.08,108.25.2,22.75-7.75,42.4-19.81,61.23-11.81,18.43-29.4,29.35-48.08,38.46-8.77,4.27-19.39,4.8-29.21,6.88-5.27,1.12-10.62,2.84-15.91,2.74-24.89-.44-43-17-49.26-41.23-4.35-16.84-1.9-33.6-3.08-50.36-1.09-15.39-1.95-30.84-1.84-46.26.2-26.61,1.22-53.21,1.93-79.81a21.66,21.66,0,0,1,.59-3.31l63.52-16.15a60.73,60.73,0,0,1,.64,6.34c0,43.95-.4,87.92.09,131.87a60.78,60.78,0,0,0,5.83,24.38c3.09,6.57,9.77,5.92,16.33,1.94,8.74-5.3,11.15-13,11.15-22.43,0-45.74.2-91.48.32-137.22,0-13.74,2.24-15.45,16-17.78,11-1.86,21.76-5.59,32.67-8.28C849,282.74,854.84,281.82,861.42,280.51Z" transform="translate(-278.27 -14.99)"/><path class="cls-3" d="M822.91,791.92c0-8.1,0-14.66,0-21.21-.12-37.88-.33-75.75-.35-113.62,0-11.94-1.19-24.22,1.18-35.73,2.52-12.31,7.6-24.41,13.37-35.68,7.31-14.26,18.9-25.63,32.19-34.27,9.78-6.37,21.23-10.28,32.13-14.81,11.6-4.82,23.84-6.37,36.4-6.1,19.37.41,38.08,14.51,44.2,33a128,128,0,0,1,6.23,41.78c-.36,46-.23,92,0,138,0,7-2.58,9.14-9.51,10.2-10.39,1.6-20.41,5.4-30.66,8-6.4,1.6-12.95,2.53-19.38,4s-7.8-1.09-7.78-7.11q.33-67.86.05-135.74a51.7,51.7,0,0,0-2.84-17.08c-2.05-5.65-13.65-6.84-18.72-3.15-9.92,7.23-11.6,18.22-11.73,28.74-.57,45.5-.26,91-.3,136.51,0,3-.26,6-.38,8.62Z" transform="translate(-278.27 -14.99)"/><path class="cls-3" d="M955.73,487.62c-.88-3.49-2.52-7-2.53-10.48-.16-49.28-.1-98.56-.09-147.83v-8.64l-52,12.83V304.1c0-9.39.11-18.79,0-28.19-.08-4.56,1.92-6.64,6.31-7.71,10.93-2.64,21.76-5.75,32.65-8.6q7.17-1.87,14.41-3.46c14.6-3.19,29.31-5.94,43.79-9.59,13.23-3.33,26.16-7.8,39.32-11.43,8.94-2.47,18-4.4,27.06-6.48,5.67-1.3,9.62.54,9.73,6.8.29,16.76.47,33.53.17,50.28,0,2.2-2.78,5.74-4.89,6.28-10.43,2.67-21.07,4.5-31.63,6.73-4.56,1-9.61,1.27-13.42,3.57-2.43,1.45-4.19,6-4.21,9.16-.26,44.71-.18,89.41-.18,134.12,0,6.6-.1,13.21,0,19.81.1,4.64-1.86,6.34-6.55,7.36-10.38,2.26-20.5,5.71-30.79,8.41-5.64,1.48-11.43,2.39-17.14,3.63-2.63.57-5.23,1.32-7.84,2Z" transform="translate(-278.27 -14.99)"/><path class="cls-3" d="M605.35,627c-8.87,18-16.67,34.06-24.74,50-10.88,21.49-22.37,42.69-32.56,64.5-1.7,3.64,1,10.16,3.17,14.61,6.35,13,13.29,25.68,20.33,38.3,9.42,16.91,19.2,33.62,28.72,50.48,1.94,3.43,3.42,7.12,5.45,11.4l-73.5,19c-3.12-6.59-6.44-13.44-9.62-20.35-9.58-20.81-19.06-41.66-28.66-62.45-4.5-9.74-9.82-19.17-13.45-29.21-1.18-3.29,1.18-8.4,3-12.14,9.89-20.1,20.17-40,30.24-60.05,7.17-14.25,13.82-28.78,21.61-42.68,2-3.63,7.15-6.33,11.42-7.73,10.15-3.33,20.58-5.85,31-8.27C586.47,630.33,595.31,628.9,605.35,627Z" transform="translate(-278.27 -14.99)"/><path class="cls-3" d="M745.05,589.07V819.75l-66.69,16.69V826.39q0-105.9-.14-211.79c0-7.39,2.4-10.05,10-11.2,10.42-1.57,20.44-5.67,30.71-8.36C727.24,592.87,735.67,591.2,745.05,589.07Z" transform="translate(-278.27 -14.99)"/><path class="cls-3" d="M473,889.65l-65.84,16.56c-.21-4.07-.46-6.81-.46-9.54q0-106.3-.11-212.59c0-6.56,2.05-9.28,9.06-10.49,10.06-1.73,19.67-5.9,29.61-8.45,8.93-2.29,18.05-3.8,27.74-5.79Z" transform="translate(-278.27 -14.99)"/><path class="cls-1" d="M633,301.46q.1-37.6.23-75.21l36-9a36.26,36.26,0,0,1,10.4-1.28,16.86,16.86,0,0,1,7.67,2.08q6.4,3.9,6.38,13.55a20.45,20.45,0,0,1-3.12,11,20,20,0,0,1-8.65,7.51c5.17-.24,9,.87,11.39,3.15s3.73,5.93,3.72,10.93a24.29,24.29,0,0,1-7.19,17.71c-4.74,4.76-11.75,8.28-20.93,10.58Zm25.56-63.69c0,4.21,0,6.32,0,10.53l3.54-.89a10.5,10.5,0,0,0,5.09-2.66,6.09,6.09,0,0,0,1.66-4.32c0-1.75-.54-2.91-1.63-3.49s-2.83-.63-5.09-.06Zm-.08,26.71c0,4.81,0,7.21,0,12l4.52-1.13a13.64,13.64,0,0,0,6.33-3.18,6.92,6.92,0,0,0,2.12-4.95c0-2-.73-3.27-2.1-3.89s-3.57-.69-6.31,0Z" transform="translate(-278.27 -14.99)"/><path class="cls-1" d="M706.65,283q.11-37.6.23-75.2l34-8.53q14.85-3.72,22.59.86T771.24,217a25.9,25.9,0,0,1-4,14.13,21,21,0,0,1-10.65,8.78q10,12.8,20,25.58l-30.32,7.6-13.08-21.52c0,9.93,0,14.89-.08,24.81Zm26.68-62.48c0,5.87,0,8.81,0,14.69l4.21-1.06a11.36,11.36,0,0,0,6-3.4,8.75,8.75,0,0,0,2-5.85c0-2.4-.67-4.17-2-5.1s-3.37-1-6-.34Z" transform="translate(-278.27 -14.99)"/><path class="cls-1" d="M782,264.11q.12-37.61.23-75.2l50.31-12.61c0,8.16,0,12.24-.07,20.39l-23.79,6,0,7.24,21.58-5.41-.06,19.26-21.58,5.41c0,3.17,0,4.75,0,7.91L833,231c0,8.15,0,12.23-.07,20.39Z" transform="translate(-278.27 -14.99)"/><path class="cls-1" d="M912.6,231.38l-3.19-29-.3-3.42q-.15-1.71-.3-3.36c-.26-2.81-.43-5-.49-6.71-.39,2.36-.81,4.75-1.31,7.16-.4,2-1.12,4.76-2.13,8.33q-4.35,15.54-8.72,31.09l-16.08,4-8.55-26.76a63,63,0,0,1-2.08-7.28c-.63-2.84-1.06-5-1.27-6.51-.28,3.36-.43,5.74-.53,7.06-.11,1.48-.35,3.84-.64,7q-1.68,15.32-3.38,30.62l-26.51,6.64,13.07-78.42,27.91-7,5.28,17.25c.07.33.33,1.14.77,2.43a106.4,106.4,0,0,1,4.1,18.32l.46-.11c.42-3.33,1.09-6.9,1.88-10.64.69-3.24,1.77-7.59,3.33-12.95,2.26-7.87,3.39-11.81,5.66-19.69l27.85-7q5.84,36.12,11.69,72.22Z" transform="translate(-278.27 -14.99)"/><path class="cls-1" d="M946.57,222.86l.23-75.2,50.31-12.61c0,8.16,0,12.24-.06,20.4l-23.8,6c0,2.89,0,4.34,0,7.24l21.58-5.41,0,19.27-21.59,5.4c0,3.17,0,4.75,0,7.91l24.41-6.11c0,8.15,0,12.23-.06,20.39Z" transform="translate(-278.27 -14.99)"/><path class="cls-1" d="M1008.44,207.36q.12-37.61.23-75.21l26.51-6.64L1058.4,159a43.14,43.14,0,0,1-.6-5.65q-.19-4.16-.18-8.27c0-10.09,0-15.13.07-25.22l26.11-6.54q-.12,37.59-.23,75.2l-26.77,6.71-23-33.26a36.86,36.86,0,0,1,.6,5.24c.13,2.63.19,4.8.19,6.47,0,10.85-.05,16.28-.08,27.13Z" transform="translate(-278.27 -14.99)"/><path class="cls-4" d="M278.27,15H1498M334.73,702.05c-7.72.4-16.94,8.45-16.61,18.24.28,8.44,8.57,17.43,16.36,17.47,9.86,0,17.54-7.94,17.5-18.18C351.93,709.67,344.36,701.55,334.73,702.05Zm.45,103.05a17.54,17.54,0,0,0-17.25,17.37c0,8,9.32,18.25,16.58,18.29,10.37,0,17.43-7.12,17.41-17.66C351.9,812,345.51,805.09,335.18,805.1Zm-.32,103.47a17,17,0,0,0-16.76,17c.11,9.32,7.6,17.29,16.58,16.44,11.06-1,18-6,17.24-17.33C351.89,913.81,346.38,908.6,334.86,908.57Zm730.76-102.66c0,10.14,7.32,17.21,17.69,17.14,10.52-.06,15.17-8.83,15.63-17.48.54-9.89-6.78-16-17.41-16S1065.62,794.9,1065.62,805.91ZM694.25,887.6c-8-.16-16.77,7.3-16.44,16.55.37,10.06,6.88,17.25,16.71,17.27,9.65,0,17.14-7.18,17.23-16.59C713.12,895.58,702.85,887.77,694.25,887.6Zm-175,66.19c-.21-8.36-8.62-16.7-17.27-17.12-10.41-.51-16.52,5.84-16.68,17.35q-.22,16.18,15.62,16.38C510,970.5,519.42,961.94,519.22,953.79Zm834.69-223c-.17,7.28,11.5,18.26,19.83,18.65,7.5.35,15.75-8.81,15.83-17.59s-7-15.43-16.47-15.62C1364.14,716.07,1354.08,723.71,1353.91,730.81ZM403.24,994.68c10.09.28,18.45-6.43,18.2-15.43-.29-10.12-6.43-16.88-15.51-17.68-9.94-.88-17.61,7.22-17.84,17.53S392.84,994.39,403.24,994.68Zm777.58-229.13c-10.7-.06-19.32,6.6-19.65,15.17-.32,8.14,9.12,17.8,17.55,17.94,8.73.16,15.39-7.34,15.44-17.38C1194.22,770.43,1190.12,765.6,1180.82,765.55ZM985.34,814.3c-8.5,0-16.54,8.13-16.66,16.76-.11,7.55,8.45,16.41,16,16.59,8.64.22,17.08-8.18,17.14-17C1001.89,822.06,994,814.26,985.34,814.3ZM808.88,878.94c-.12-6.43-10.51-15.78-17.51-15.75-8.14,0-15.54,7.46-15.72,15.76-.24,11.11,5.53,17.61,15.75,17.71C800.61,896.76,809.05,888.19,808.88,878.94ZM1257.5,89.73c-9.62,0-15.22,6-15.14,16.1.07,9.66,6.68,16.89,15.6,17s16-7.47,15.94-17C1273.87,95.68,1267.82,89.71,1257.5,89.73Zm166.39,245.76c-.43,7.12,10.26,18.1,17.64,17.45,8.36-.74,15.94-9.43,15.75-18.1-.21-9.47-5.94-15.43-15.32-15.5C1432.93,319.27,1424.41,326.89,1423.89,335.49ZM1291.84,758c.16-9.29-6.94-17.78-16.37-17.18-9.63.6-17.23,7.63-16.9,16.77.28,7.9,8.07,14.59,16.92,14.51C1286,772,1291.68,767,1291.84,758ZM613.9,929.45c.1-8.69-6.32-14.9-15.56-15.05-9.57-.16-16.91,5.76-17.35,14-.46,8.41,8,16.94,16.92,17A15.94,15.94,0,0,0,613.9,929.45Zm274.68-90.4c-6,.07-17,9.69-17.44,15.25-.49,6.82,10.39,17.75,17.62,17.68,7.42-.06,15.45-8.46,15.5-16.21C904.31,847.19,896.59,839,888.58,839.05Zm553.14-417.38c-7.15-.55-15,6.7-15.44,12.88-1,13.88,5.17,18.51,16,19.51,7.65.7,14.22-6.58,14.34-14.89C1457.26,431.21,1449.94,422.3,1441.72,421.67ZM320.87,411.4c0,9.23,5.24,15.31,13.26,15.37,9.26.07,17.13-7.22,17.06-15.79-.07-7.64-7.94-14.67-16.46-14.68C326,396.29,320.88,401.83,320.87,411.4ZM1456.64,541.31c0-8.77-6-14.42-15.19-14.46s-14.93,5.94-15,15.55c0,7.47,6.15,13,14.66,13.09C1450,555.58,1456.65,549.5,1456.64,541.31ZM320.56,616.6c-.19,9.33,4.92,15.11,13.51,15.29,10.06.21,17-5.14,17.17-13.31.23-9-5-14.67-13.66-14.79C327.3,603.64,320.72,608.59,320.56,616.6Zm1106.06,23.78c-.29,10.1,5.5,17.56,13.73,17.72,8.82.17,16.4-6.43,16.33-14.23-.06-7-8.39-15.39-15.31-15.45C1433.93,628.36,1426.79,634.15,1426.62,640.38Zm-1092.46-140c-5,.1-12.78,8.88-13,14.59-.19,4.82,8.33,12.71,13.7,12.67,7.71,0,13.92-5.48,13.9-12.16C348.73,506.86,342.31,500.22,334.16,500.38Zm811.45-384.92c-9.62,0-15.22,6-15.15,16.1.08,9.66,6.69,16.88,15.61,17s16-7.47,15.94-17C1162,121.41,1155.92,115.44,1145.61,115.46ZM552.46,280c0,9.23,5.24,15.31,13.26,15.37,9.25.07,17.12-7.22,17-15.79-.06-7.64-7.94-14.67-16.45-14.68C557.56,264.9,552.47,270.44,552.46,280Zm-97.7,24.42c0,9.23,5.23,15.32,13.26,15.37,9.25.07,17.12-7.21,17.05-15.78-.06-7.65-7.94-14.68-16.45-14.69C459.86,289.32,454.77,294.87,454.76,304.43Zm-87.37,30.18c0,9.23,5.23,15.31,13.26,15.37,9.25.07,17.12-7.22,17.05-15.79-.07-7.65-7.94-14.67-16.45-14.68C372.49,319.5,367.4,325,367.39,334.61Z" transform="translate(-278.27 -14.99)"/><path class="cls-4" d="M1457.9,233c0,9.95-7.47,17.94-16.71,17.78s-16.28-7.74-16.36-17.86c-.07-10.63,5.79-16.86,15.88-16.88C1451.52,216,1457.86,222.27,1457.9,233Z" transform="translate(-278.27 -14.99)"/><path class="cls-4" d="M1459,129.36a18.11,18.11,0,0,1-36.22-.09c-.09-10.73,6.34-17,17.39-17.05C1452,112.2,1459,118.52,1459,129.36Z" transform="translate(-278.27 -14.99)"/><path class="cls-4" d="M1389.52,77c0,10.3-7.73,18.57-17.29,18.4s-16.86-8-16.94-18.49c-.08-11,6-17.45,16.44-17.47C1382.92,59.44,1389.48,65.92,1389.52,77Z" transform="translate(-278.27 -14.99)"/></svg>
