<svg xmlns="http://www.w3.org/2000/svg" viewBox="0 0 446 854"><defs><style>.cls-1{fill:#ccc;}.cls-2{fill:#1e2a2a;}.cls-3{fill:#dd6b6b;}.cls-4{fill:#b74444;}.cls-5{fill:#fff381;}.cls-6{fill:#723e3e;}.cls-7{fill:#e74041;}</style></defs><g id="Ebene_2" data-name="Ebene 2"><path class="cls-1" d="M332,101.7V253a7,7,0,0,0,7,7H358a7,7,0,0,0,7-7V127.48c0-5.79,6.69-10.48,12.48-10.48H413a7,7,0,0,0,7-7V96a7,7,0,0,0-7-7H344.7A12.71,12.71,0,0,0,332,101.7Z" transform="translate(-332 -89)"/><path class="cls-1" d="M778,101.7V253a7,7,0,0,1-7,7H752a7,7,0,0,1-7-7V127.48c0-5.79-6.69-10.48-12.48-10.48H697a7,7,0,0,1-7-7V96a7,7,0,0,1,7-7H765.3A12.71,12.71,0,0,1,778,101.7Z" transform="translate(-332 -89)"/><path class="cls-1" d="M332,930.3V791a7,7,0,0,1,7-7H358a7,7,0,0,1,7,7V904.52c0,5.79,6.69,10.48,12.48,10.48H413a7,7,0,0,1,7,7V936a7,7,0,0,1-7,7H344.7A12.71,12.71,0,0,1,332,930.3Z" transform="translate(-332 -89)"/><path class="cls-1" d="M778,930.3V791a7,7,0,0,0-7-7H752a7,7,0,0,0-7,7V904.52c0,5.79-6.69,10.48-12.48,10.48H697a7,7,0,0,0-7,7V936a7,7,0,0,0,7,7H765.3A12.71,12.71,0,0,0,778,930.3Z" transform="translate(-332 -89)"/><path class="cls-1" d="M639.43,337H459.57a72.79,72.79,0,0,0-72.8,72.79V674.21A72.79,72.79,0,0,0,459.57,747H639.43a72.79,72.79,0,0,0,72.8-72.79V409.79A72.79,72.79,0,0,0,639.43,337Zm-1.95,213.21q-26.26,22-78.22,22H507.49v79q0,16.94-8,25.69a26.13,26.13,0,0,1-20.17,8.76q-12.75,0-20.56-8.66T451,651.55v-215q0-18.64,8.57-26.64t27.21-8h72.51q32.16,0,49.48,4.95a73.62,73.62,0,0,1,29.59,15.8,71.28,71.28,0,0,1,18.94,27q6.47,16,6.47,36Q663.74,528.23,637.48,550.21Z" transform="translate(-332 -89)"/><path class="cls-1" d="M545.56,444.3H507.49v85.26h38.07q20,0,33.4-4.18t20.45-13.71q7.05-9.51,7.05-24.93,0-18.45-10.85-30.07Q583.43,444.31,545.56,444.3Z" transform="translate(-332 -89)"/></g><g id="Ebene_1" data-name="Ebene 1"><path class="cls-2" d="M733,374.09h-3.17v-124H733c1.48,0,2.69,6.78,2.69,15.15v93.66C735.73,367.31,734.52,374.09,733,374.09Z" transform="translate(-332 -89)"/><path class="cls-2" d="M733,782.66h-3.17v-124H733c1.48,0,2.69,6.78,2.69,15.15v93.66C735.73,775.87,734.52,782.66,733,782.66Z" transform="translate(-332 -89)"/><path class="cls-2" d="M376.5,374.09h3.17v-124H376.5c-1.49,0-2.69,6.78-2.69,15.15v93.66C373.81,367.31,375,374.09,376.5,374.09Z" transform="translate(-332 -89)"/><path class="cls-2" d="M376.5,782.66h3.17v-124H376.5c-1.49,0-2.69,6.78-2.69,15.15v93.66C373.81,775.87,375,782.66,376.5,782.66Z" transform="translate(-332 -89)"/><path class="cls-3" d="M554.77,909c129.93,0,176-48.08,176-89.38V227.43c0-57.24-41.64-103.64-93-103.64H471.8c-51.37,0-93,46.4-93,103.64V819.62C378.79,860.92,424.84,909,554.77,909Z" transform="translate(-332 -89)"/><path class="cls-4" d="M384,344.47l-37,13.13c-7.34,2.61-11.48,11.66-9.25,20.22s10,13.41,17.32,10.81l37-13.14c7.34-2.6,11.49-11.66,9.25-20.22S391.3,341.87,384,344.47Z" transform="translate(-332 -89)"/><path class="cls-4" d="M762.6,357.6l-37-13.13c-7.34-2.6-15.09,2.23-17.32,10.8s1.9,17.62,9.25,20.22l37,13.14c7.34,2.6,15.1-2.24,17.33-10.81S769.94,360.21,762.6,357.6Z" transform="translate(-332 -89)"/><path class="cls-4" d="M650.18,726.11c0,6.34-4.66,11.52-10.34,11.52H469.71c-5.69,0-10.35-5.18-10.35-11.52V481.84c0-6.33,4.61-12.25,10.24-13.14,0,0,35.19-5.57,85.17-5.57s85.17,5.57,85.17,5.57c5.63.89,10.24,6.81,10.24,13.14Z" transform="translate(-332 -89)"/><path class="cls-2" d="M660.65,604.19v105.4c0,6.33,2.88,15.59,6.41,20.56l40.32,57c3.53,5,6.41,3.86,6.41-2.48V604.19Z" transform="translate(-332 -89)"/><path class="cls-2" d="M713.79,587.25V406.81c0-6.34-2.88-7.45-6.41-2.48l-40.32,56.95c-3.53,5-6.41,14.23-6.41,20.56V587.25Z" transform="translate(-332 -89)"/><path class="cls-2" d="M395.75,604.19V784.62c0,6.34,2.88,7.45,6.41,2.48l40.32-57c3.53-5,6.41-14.23,6.41-20.56V604.19Z" transform="translate(-332 -89)"/><path class="cls-2" d="M448.89,587.25V481.84c0-6.33-2.88-15.59-6.41-20.56l-40.32-56.95c-3.53-5-6.41-3.86-6.41,2.48V587.25Z" transform="translate(-332 -89)"/><path class="cls-2" d="M404.29,363.59l50.5,83.94c2.43,5.73,9.06,9.93,14.72,9.35,0,0,43.2-4.47,85.26-4.47S640,456.88,640,456.88c5.66.58,12.29-3.62,14.72-9.35l50.5-83.94c2.43-5.72.58-13.34-4.11-16.91,0,0-42.63-26-146.37-26s-146.37,26-146.37,26C403.71,350.25,401.86,357.87,404.29,363.59Z" transform="translate(-332 -89)"/><path class="cls-4" d="M554.77,310.34c95.07,0,137.31,18.27,151.55,26.53V234.93c0-43.84-32.63-79.5-72.75-79.5H476c-40.11,0-72.74,35.66-72.74,79.5V336.87C417.46,328.61,459.7,310.34,554.77,310.34Z" transform="translate(-332 -89)"/><path class="cls-2" d="M554.77,751.64c42.06,0,85.26-2.31,85.26-2.31,5.66-.3,12.29,1.87,14.72,4.82l37.19,45.2c2.43,2.95.58,6.89-4.11,8.73,0,0-29.32,11.54-133.06,11.54s-133-11.54-133-11.54c-4.7-1.84-6.55-5.78-4.12-8.73l37.19-45.2c2.43-2.95,9.06-5.12,14.72-4.82C469.51,749.33,512.71,751.64,554.77,751.64Z" transform="translate(-332 -89)"/><path class="cls-4" d="M554.77,898.38c173.16,0,159-92,159-92-30,30.49-119.37,28.72-159,28.72s-129,1.77-159-28.72C395.75,806.4,381.61,898.38,554.77,898.38Z" transform="translate(-332 -89)"/><path class="cls-5" d="M719.34,177.66c-15.81-32.11-46.42-53.87-81.6-53.87H627.28c7.27,6.29,31.89,10.66,56.62,28.08C699.05,162.54,710.67,171.64,719.34,177.66Z" transform="translate(-332 -89)"/><path class="cls-5" d="M390.2,177.66c8.66-6,20.29-15.12,35.44-25.79,24.73-17.42,49.35-21.79,56.61-28.08H471.8C436.62,123.79,406,145.55,390.2,177.66Z" transform="translate(-332 -89)"/><path class="cls-6" d="M601.43,297.89c1.06-5,2.3-10,3.45-15l3.73-14.94c2.49-10,5.19-19.86,7.9-29.76s5.54-19.77,8.51-29.6l4.48-14.73c1.59-4.88,3.09-9.79,4.76-14.66-1.06,5-2.3,10-3.45,15l-3.73,14.94c-2.49,10-5.19,19.87-7.9,29.77s-5.54,19.76-8.52,29.58l-4.48,14.74C604.59,288.11,603.1,293,601.43,297.89Z" transform="translate(-332 -89)"/><path class="cls-6" d="M508.11,297.89c-1.66-4.87-3.16-9.78-4.75-14.66l-4.48-14.74c-3-9.82-5.75-19.7-8.52-29.58s-5.41-19.81-7.9-29.77l-3.73-14.94c-1.15-5-2.39-10-3.45-15,1.67,4.87,3.17,9.78,4.76,14.66l4.48,14.73c3,9.83,5.75,19.71,8.51,29.6s5.41,19.8,7.9,29.76l3.73,14.94C505.81,287.88,507.05,292.86,508.11,297.89Z" transform="translate(-332 -89)"/><path class="cls-7" d="M716.79,857.74c-8.85,5.29-20.47,6.57-35.37,15.43-25.81,15.35-50.69,24.11-58.35,29.8l2.5.2C672.46,894.57,701.44,877.34,716.79,857.74Z" transform="translate(-332 -89)"/><path class="cls-7" d="M392.74,857.74c15.36,19.6,44.33,36.83,91.23,45.43l2.5-.2c-7.66-5.69-32-13.51-57.86-28.85C413.71,865.26,401.6,863,392.74,857.74Z" transform="translate(-332 -89)"/></g></svg>