<svg id="Ebene_2" data-name="Ebene 2" xmlns="http://www.w3.org/2000/svg" viewBox="0 0 446 854"><defs><style>.cls-1{fill:#ccc;}</style></defs><path class="cls-1" d="M332,101.7V253a7,7,0,0,0,7,7H358a7,7,0,0,0,7-7V127.48c0-5.79,6.69-10.48,12.48-10.48H413a7,7,0,0,0,7-7V96a7,7,0,0,0-7-7H344.7A12.71,12.71,0,0,0,332,101.7Z" transform="translate(-332 -89)"/><path class="cls-1" d="M778,101.7V253a7,7,0,0,1-7,7H752a7,7,0,0,1-7-7V127.48c0-5.79-6.69-10.48-12.48-10.48H697a7,7,0,0,1-7-7V96a7,7,0,0,1,7-7H765.3A12.71,12.71,0,0,1,778,101.7Z" transform="translate(-332 -89)"/><path class="cls-1" d="M332,930.3V791a7,7,0,0,1,7-7H358a7,7,0,0,1,7,7V904.52c0,5.79,6.69,10.48,12.48,10.48H413a7,7,0,0,1,7,7V936a7,7,0,0,1-7,7H344.7A12.71,12.71,0,0,1,332,930.3Z" transform="translate(-332 -89)"/><path class="cls-1" d="M778,930.3V791a7,7,0,0,0-7-7H752a7,7,0,0,0-7,7V904.52c0,5.79-6.69,10.48-12.48,10.48H697a7,7,0,0,0-7,7V936a7,7,0,0,0,7,7H765.3A12.71,12.71,0,0,0,778,930.3Z" transform="translate(-332 -89)"/><path class="cls-1" d="M639.43,337H459.57a72.79,72.79,0,0,0-72.8,72.79V674.21A72.79,72.79,0,0,0,459.57,747H639.43a72.79,72.79,0,0,0,72.8-72.79V409.79A72.79,72.79,0,0,0,639.43,337Zm-1.95,213.21q-26.26,22-78.22,22H507.49v79q0,16.94-8,25.69a26.13,26.13,0,0,1-20.17,8.76q-12.75,0-20.56-8.66T451,651.55v-215q0-18.64,8.57-26.64t27.21-8h72.51q32.16,0,49.48,4.95a73.62,73.62,0,0,1,29.59,15.8,71.28,71.28,0,0,1,18.94,27q6.47,16,6.47,36Q663.74,528.23,637.48,550.21Z" transform="translate(-332 -89)"/><path class="cls-1" d="M545.56,444.3H507.49v85.26h38.07q20,0,33.4-4.18t20.45-13.71q7.05-9.51,7.05-24.93,0-18.45-10.85-30.07Q583.43,444.31,545.56,444.3Z" transform="translate(-332 -89)"/></svg>